# xmcd CD database file
#
# Track frame offsets:
#	150
#	38435
#	55550
#	88822
#	117160
#	140532
#	166857
#	193102
#	233027
#	267390
#	297247
#
# Disc length: 4305 seconds
#
# Revision: 0
# Processed by: cddbd v1.4PL0 Copyright (c) Steve Scherf et al.
# Submitted via: CDex 1.50beta10
#
DISCID=9310cf0b
DTITLE=Renee Rosnes - With A Litlle Help from My Friends
DYEAR=2001
DGENRE=Jazz
TTITLE0=Summer Night
TTITLE1=I've Got You Under My Skin
TTITLE2=The Sounds Around the House
TTITLE3=Upa Neghino
TTITLE4=Lady Afternoon
TTITLE5=Bright Mississippi
TTITLE6=Diana
TTITLE7=Gargoyles
TTITLE8=With A Little Help from My Friends
TTITLE9=So In Love
TTITLE10=Malaga Moon
EXTD=YEAR: 2001
EXTT0=
EXTT1=
EXTT2=
EXTT3=
EXTT4=
EXTT5=
EXTT6=
EXTT7=
EXTT8=
EXTT9=
EXTT10=
PLAYORDER=
